<svg version="1.1" xmlns="http://www.w3.org/2000/svg" xmlns:xlink="http://www.w3.org/1999/xlink" width="249.79278" height="54.672" viewBox="0,0,249.79278,54.672"><defs><linearGradient x1="195.17147" y1="175.82388" x2="444.9615" y2="175.82388" gradientUnits="userSpaceOnUse" id="color-1"><stop offset="0.012" stop-color="#a7a9ac"/><stop offset="1" stop-color="#414042"/></linearGradient><linearGradient x1="198.58299" y1="175.82298" x2="441.35247" y2="175.82298" gradientUnits="userSpaceOnUse" id="color-2"><stop offset="0" stop-color="#d1d2d3"/><stop offset="1" stop-color="#a4a5a8"/></linearGradient></defs><g transform="translate(-195.16899,-148.48768)"><g data-paper-data="{&quot;isPaintingLayer&quot;:true}" fill-rule="nonzero" stroke="none" stroke-width="1" stroke-linecap="butt" stroke-linejoin="miter" stroke-miterlimit="10" stroke-dasharray="" stroke-dashoffset="0" style="mix-blend-mode: normal"><path d="M444.96177,194.55468c0,4.752 -10.57903,8.605 -23.62026,8.605h-202.555c-13.04397,0 -23.61752,-3.854 -23.61752,-8.605v-37.463c0,-4.752 10.57354,-8.604 23.61752,-8.604h202.55225c13.04946,0 23.62024,3.852 23.62024,8.604v37.463z" fill="url(#color-1)"/><path d="M441.34987,157.09168v37.462c0,2.862 -6.71148,5.19 -14.97176,5.19h-212.82623c-8.25162,0 -14.96887,-2.328 -14.96887,-5.19v-37.463c0,-2.862 6.71725,-5.19 14.96887,-5.19h212.82623c8.26028,0 14.97176,2.329 14.97176,5.191z" fill="url(#color-2)"/></g></g></svg>