<svg version="1.1" xmlns="http://www.w3.org/2000/svg" xmlns:xlink="http://www.w3.org/1999/xlink" width="230.18598" height="54.672" viewBox="0,0,230.18598,54.672"><defs><linearGradient x1="195.17128" y1="176.1562" x2="425.35473" y2="176.1562" gradientUnits="userSpaceOnUse" id="color-1"><stop offset="0.012" stop-color="#a7a9ac"/><stop offset="1" stop-color="#414042"/></linearGradient><linearGradient x1="198.583" y1="176.1553" x2="421.41314" y2="176.1553" gradientUnits="userSpaceOnUse" id="color-2"><stop offset="0" stop-color="#d1d2d3"/><stop offset="1" stop-color="#a4a5a8"/></linearGradient></defs><g transform="translate(-195.169,-148.82)"><g data-paper-data="{&quot;isPaintingLayer&quot;:true}" fill-rule="nonzero" stroke="none" stroke-width="1" stroke-linecap="butt" stroke-linejoin="miter" stroke-miterlimit="10" stroke-dasharray="" stroke-dashoffset="0" style="mix-blend-mode: normal"><path d="M425.35498,194.887c0,4.752 -9.74865,8.605 -21.76625,8.605h-186.65601c-12.02013,0 -21.76372,-3.854 -21.76372,-8.605v-37.463c0,-4.752 9.74359,-8.604 21.76372,-8.604h186.65348c12.02519,0 21.76624,3.852 21.76624,8.604v37.463z" fill="url(#color-1)"/><path d="M421.41076,157.424v37.462c0,2.862 -6.16024,5.19 -13.74208,5.19h-195.34623c-7.5739,0 -13.73944,-2.328 -13.73944,-5.19v-37.463c0,-2.862 6.16554,-5.19 13.73944,-5.19h195.34623c7.58184,0 13.74208,2.329 13.74208,5.191z" fill="url(#color-2)"/></g></g></svg>