<svg version="1.1" xmlns="http://www.w3.org/2000/svg" xmlns:xlink="http://www.w3.org/1999/xlink" width="146.50025" height="54.672" viewBox="0,0,146.50025,54.672"><defs><linearGradient x1="195.17046" y1="176.1562" x2="341.66908" y2="176.1562" gradientUnits="userSpaceOnUse" id="color-1"><stop offset="0.012" stop-color="#a7a9ac"/><stop offset="1" stop-color="#414042"/></linearGradient><linearGradient x1="198.583" y1="176.05023" x2="338.07595" y2="176.05023" gradientUnits="userSpaceOnUse" id="color-2"><stop offset="0" stop-color="#d1d2d3"/><stop offset="1" stop-color="#a4a5a8"/></linearGradient></defs><g transform="translate(-195.16899,-148.82)"><g data-paper-data="{&quot;isPaintingLayer&quot;:true}" fill-rule="nonzero" stroke="none" stroke-width="1" stroke-linecap="butt" stroke-linejoin="miter" stroke-miterlimit="10" stroke-dasharray="" stroke-dashoffset="0" style="mix-blend-mode: normal"><path d="M341.66924,194.887c0,4.752 -6.20446,8.605 -13.85298,8.605h-118.79589c-7.65012,0 -13.85137,-3.854 -13.85137,-8.605v-37.463c0,-4.752 6.20124,-8.604 13.85137,-8.604h118.79428c7.65335,0 13.85297,3.852 13.85297,8.604v37.463z" fill="url(#color-1)"/><path d="M338.07445,157.31893v37.462c0,2.862 -3.85635,5.19 -8.60262,5.19h-122.28785c-4.7413,0 -8.60096,-2.328 -8.60096,-5.19v-37.463c0,-2.862 3.85966,-5.19 8.60096,-5.19h122.28785c4.74627,0 8.60262,2.329 8.60262,5.191z" fill="url(#color-2)"/></g></g></svg>